<?xml version="1.0" encoding="UTF-8" standalone="no"?>
<svg
   xmlns:dc="http://purl.org/dc/elements/1.1/"
   xmlns:cc="http://creativecommons.org/ns#"
   xmlns:rdf="http://www.w3.org/1999/02/22-rdf-syntax-ns#"
   xmlns:svg="http://www.w3.org/2000/svg"
   xmlns="http://www.w3.org/2000/svg"
   xmlns:sodipodi="http://sodipodi.sourceforge.net/DTD/sodipodi-0.dtd"
   xmlns:inkscape="http://www.inkscape.org/namespaces/inkscape"
   inkscape:export-ydpi="96"
   inkscape:export-xdpi="96"
   inkscape:export-filename="/opt/lampp/htdocs/primax/formatos/01.png"
   sodipodi:docname="correo.svg"
   inkscape:version="0.92.5 (2060ec1f9f, 2020-04-08)"
   id="svg8"
   version="1.1"
   viewBox="0 0 5.0000002 62.000002"
   height="62mm"
   width="5mm">
  <defs
     id="defs2" />
  <sodipodi:namedview
     inkscape:document-rotation="0"
     inkscape:snap-bbox-edge-midpoints="true"
     inkscape:bbox-nodes="true"
     inkscape:bbox-paths="true"
     inkscape:snap-bbox="true"
     inkscape:window-maximized="1"
     inkscape:window-y="0"
     inkscape:window-x="0"
     inkscape:window-height="1013"
     inkscape:window-width="1680"
     units="mm"
     showgrid="false"
     inkscape:current-layer="layer1"
     inkscape:document-units="mm"
     inkscape:cy="118.17864"
     inkscape:cx="5.2125018"
     inkscape:zoom="3.4227844"
     inkscape:pageshadow="2"
     inkscape:pageopacity="0.0"
     borderopacity="1.0"
     bordercolor="#666666"
     pagecolor="#ffffff"
     id="base"
     inkscape:snap-bbox-midpoints="false"
     showguides="true"
     inkscape:guide-bbox="true" />
  <metadata
     id="metadata5">
    <rdf:RDF>
      <cc:Work
         rdf:about="">
        <dc:format>image/svg+xml</dc:format>
        <dc:type
           rdf:resource="http://purl.org/dc/dcmitype/StillImage" />
        <dc:title />
      </cc:Work>
    </rdf:RDF>
  </metadata>
  <g
     transform="translate(0,-234.99999)"
     id="layer1"
     inkscape:groupmode="layer"
     inkscape:label="Capa 1">
    <g
       style="stroke-width:1.00778151"
       transform="matrix(0.35038247,0,0,-0.34972549,3.3576369,277.3274)"
       id="g1356">
      <path
         inkscape:connector-curvature="0"
         id="path1358"
         style="fill:none;stroke:#808285;stroke-width:0.74878162;stroke-linecap:butt;stroke-linejoin:miter;stroke-miterlimit:22.9260006;stroke-dasharray:none;stroke-opacity:1"
         d="m 0,0 c -1.461,0.158 -2.397,0.038 -2.41,-0.405 -0.106,-0.732 0.654,-0.897 0.606,-1.505 -0.035,-0.452 -0.289,-0.84 -0.859,-1.031 -0.621,-0.17 -1.117,0.249 -1.339,0.564 -0.253,0.356 0.167,1.091 -0.086,1.448 -0.332,0.539 -1.29,-0.024 -2.533,-1.087 l -1.222,1.489 c -0.315,0.385 -0.356,0.628 -0.244,0.971 0.067,0.205 0.331,0.623 1.097,0.455 0.951,-0.195 0.953,0.815 0.9,1.209 -0.046,0.348 -0.51,1.221 -1.195,1.016 -0.476,-0.402 -0.716,-0.57 -1.113,-0.404 -1.189,0.496 -0.783,1.916 -0.557,2.671 1.062,-0.201 1.841,-0.32 2.33,-0.177 0.257,0.075 0.388,0.208 0.53,0.403 0.132,0.357 -0.07,0.563 -0.232,0.793 -0.139,0.197 -0.234,0.427 -0.23,0.621 0.01,0.423 0.386,0.921 0.752,0.951 0.753,0.196 1.315,0.017 1.548,-0.456 C -4.138,7.285 -4.323,6.914 -4.276,6.505 -4.252,6.291 -3.974,6.041 -3.881,5.874 -3.628,5.767 -3.216,5.646 -2.613,6.015 -1.942,6.426 -1.931,6.624 -1.682,7 -0.816,6.638 -0.571,5.874 -0.542,5.465 -0.524,5.219 -0.697,4.96 -0.987,4.831 -1.486,4.395 -1.932,5.037 -2.459,4.544 -2.744,4.276 -2.822,3.8 -2.78,3.127 -2.556,2.645 -2.328,2.442 -1.918,2.291 -1.077,1.98 -0.732,3.321 -0.032,2.515 0.281,2.269 0.108,1.333 0,0 Z" />
    </g>
    <g
       style="stroke-width:1.00778151"
       transform="matrix(0.35038247,0,0,-0.34972549,3.3576369,277.3274)"
       id="g1360">
      <path
         inkscape:connector-curvature="0"
         id="path1362"
         style="fill:#ffffff;fill-opacity:1;fill-rule:evenodd;stroke:none;stroke-width:1.00778151"
         d="m 0,0 c -1.461,0.158 -2.397,0.038 -2.41,-0.405 -0.106,-0.732 0.654,-0.897 0.606,-1.505 -0.035,-0.452 -0.289,-0.84 -0.859,-1.031 -0.621,-0.17 -1.117,0.249 -1.339,0.564 -0.253,0.356 0.167,1.091 -0.086,1.448 -0.332,0.539 -1.29,-0.024 -2.533,-1.087 l -1.222,1.489 c -0.315,0.385 -0.356,0.628 -0.244,0.971 0.067,0.205 0.331,0.623 1.097,0.455 0.951,-0.195 0.953,0.815 0.9,1.209 -0.046,0.348 -0.51,1.221 -1.195,1.016 -0.476,-0.402 -0.716,-0.57 -1.113,-0.404 -1.189,0.496 -0.783,1.916 -0.557,2.671 1.062,-0.201 1.841,-0.32 2.33,-0.177 0.257,0.075 0.388,0.208 0.53,0.403 0.132,0.357 -0.07,0.563 -0.232,0.793 -0.139,0.197 -0.234,0.427 -0.23,0.621 0.01,0.423 0.386,0.921 0.752,0.951 0.753,0.196 1.315,0.017 1.548,-0.456 C -4.138,7.285 -4.323,6.914 -4.276,6.505 -4.252,6.291 -3.974,6.041 -3.881,5.874 -3.628,5.767 -3.216,5.646 -2.613,6.015 -1.942,6.426 -1.931,6.624 -1.682,7 -0.816,6.638 -0.571,5.874 -0.542,5.465 -0.524,5.219 -0.697,4.96 -0.987,4.831 -1.486,4.395 -1.932,5.037 -2.459,4.544 -2.744,4.276 -2.822,3.8 -2.78,3.127 -2.556,2.645 -2.328,2.442 -1.918,2.291 -1.077,1.98 -0.732,3.321 -0.032,2.515 0.281,2.269 0.108,1.333 0,0" />
    </g>
    <g
       style="stroke-width:1.00778151"
       transform="matrix(0.35038247,0,0,-0.34972549,2.4431386,266.43134)"
       id="g1364">
      <path
         inkscape:connector-curvature="0"
         id="path1366"
         style="fill:none;stroke:#ffffff;stroke-width:0.27411658;stroke-linecap:butt;stroke-linejoin:miter;stroke-miterlimit:22.9260006;stroke-dasharray:none;stroke-opacity:1"
         d="M 0,0 C 0.286,0 0.43,-0.144 0.43,-0.43 V -1.908 C 0.43,-2.187 0.286,-2.326 0,-2.326 h -3.84 c -0.289,0 -0.433,0.142 -0.433,0.426 v 1.47 c 0,0.286 0.144,0.43 0.433,0.43 h 1.003 v -0.706 h -0.832 v -0.917 h 3.495 v 0.917 H -1.49 V -1.229 H -2.088 V 0 Z" />
      <g
         style="stroke-width:1.00778151"
         transform="translate(0.43,2.968)"
         id="g1368">
        <path
           inkscape:connector-curvature="0"
           id="path1370"
           style="fill:none;stroke:#ffffff;stroke-width:0.27411658;stroke-linecap:butt;stroke-linejoin:miter;stroke-miterlimit:22.9260006;stroke-dasharray:none;stroke-opacity:1"
           d="m 0,0 v -0.734 l -2.185,-0.775 c 0,0 -0.141,0 -0.424,0 v 0.691 h -1.49 V -1.704 H 0 v -0.703 h -4.703 v 1.866 c 0,0.282 0.145,0.424 0.433,0.424 h 1.71 c 0.198,0 0.326,-0.068 0.384,-0.201 0.03,-0.073 0.046,-0.225 0.046,-0.458 z" />
        <g
           style="stroke-width:1.00778151"
           transform="translate(0,2.813)"
           id="g1372">
          <path
             inkscape:connector-curvature="0"
             id="path1374"
             style="fill:none;stroke:#ffffff;stroke-width:0.27411658;stroke-linecap:butt;stroke-linejoin:miter;stroke-miterlimit:22.9260006;stroke-dasharray:none;stroke-opacity:1"
             d="m 0,0 v -0.697 l -0.892,-0.142 v -0.88 L 0,-1.86 v -0.695 h -0.012 l -4.697,0.911 v 0.739 z" />
          <g
             style="stroke-width:1.00778151"
             transform="translate(-1.496,-0.937)"
             id="g1376">
            <path
               inkscape:connector-curvature="0"
               id="path1378"
               style="fill:none;stroke:#ffffff;stroke-width:0.27411658;stroke-linecap:butt;stroke-linejoin:miter;stroke-miterlimit:22.9260006;stroke-dasharray:none;stroke-opacity:1"
               d="M 0,0 -2.121,-0.342 0,-0.688 Z" />
            <g
               style="stroke-width:1.00778151"
               transform="translate(-4.205,0.601)"
               id="g1380">
              <path
                 inkscape:connector-curvature="0"
                 id="path1382"
                 style="fill:none;stroke:#ffffff;stroke-width:0.27411658;stroke-linecap:butt;stroke-linejoin:miter;stroke-miterlimit:22.9260006;stroke-dasharray:none;stroke-opacity:1"
                 d="M 0,0 0.794,-0.875 V -1.38 H 0.769 l -0.796,0.517 V 0 Z" />
              <g
                 style="stroke-width:1.00778151"
                 transform="translate(1.62,2.649)"
                 id="g1384">
                <path
                   inkscape:connector-curvature="0"
                   id="path1386"
                   style="fill:none;stroke:#ffffff;stroke-width:0.27411658;stroke-linecap:butt;stroke-linejoin:miter;stroke-miterlimit:22.9260006;stroke-dasharray:none;stroke-opacity:1"
                   d="m 0,0 v -1.217 h 1.392 v 1.041 h 0.61 V -1.217 H 4.081 V -1.92 H -0.622 V 0 Z" />
                <g
                   style="stroke-width:1.00778151"
                   transform="translate(4.081,1.116)"
                   id="g1388">
                  <path
                     inkscape:connector-curvature="0"
                     id="path1390"
                     style="fill:none;stroke:#ffffff;stroke-width:0.27411658;stroke-linecap:butt;stroke-linejoin:miter;stroke-miterlimit:22.9260006;stroke-dasharray:none;stroke-opacity:1"
                     d="M -4.703,0 H 0 v -0.70355 h -4.703 z" />
                  <g
                     style="stroke-width:1.00778151"
                     id="g1392">
                    <path
                       inkscape:connector-curvature="0"
                       id="path1394"
                       style="fill:none;stroke:#ffffff;stroke-width:0.27411658;stroke-linecap:butt;stroke-linejoin:miter;stroke-miterlimit:22.9260006;stroke-dasharray:none;stroke-opacity:1"
                       d="M 0,0 Z" />
                    <g
                       style="stroke-width:1.00778151"
                       transform="translate(-0.43,2.89)"
                       id="g1396">
                      <path
                         inkscape:connector-curvature="0"
                         id="path1398"
                         style="fill:none;stroke:#ffffff;stroke-width:0.27411658;stroke-linecap:butt;stroke-linejoin:miter;stroke-miterlimit:22.9260006;stroke-dasharray:none;stroke-opacity:1"
                         d="M 0,0 C 0.286,0 0.43,-0.143 0.43,-0.43 V -1.896 C 0.43,-2.174 0.286,-2.314 0,-2.314 h -3.84 c -0.289,0 -0.433,0.14 -0.433,0.418 v 1.466 c 0,0.287 0.144,0.43 0.433,0.43 h 1.099 V -0.699 H -3.669 V -1.61 h 3.495 v 0.911 H -1.163 V 0 Z" />
                      <g
                         style="stroke-width:1.00778151"
                         transform="translate(0.43,2.937)"
                         id="g1400">
                        <path
                           inkscape:connector-curvature="0"
                           id="path1402"
                           style="fill:none;stroke:#ffffff;stroke-width:0.27411658;stroke-linecap:butt;stroke-linejoin:miter;stroke-miterlimit:22.9260006;stroke-dasharray:none;stroke-opacity:1"
                           d="m 0,0 v -0.697 l -0.892,-0.142 v -0.88 L 0,-1.86 v -0.695 h -0.012 l -4.697,0.911 v 0.739 z" />
                        <g
                           style="stroke-width:1.00778151"
                           transform="translate(-1.496,-0.937)"
                           id="g1404">
                          <path
                             inkscape:connector-curvature="0"
                             id="path1406"
                             style="fill:none;stroke:#ffffff;stroke-width:0.27411658;stroke-linecap:butt;stroke-linejoin:miter;stroke-miterlimit:22.9260006;stroke-dasharray:none;stroke-opacity:1"
                             d="M 0,0 -2.121,-0.342 0,-0.688 Z" />
                          <g
                             style="stroke-width:1.00778151"
                             transform="translate(1.067,3.585)"
                             id="g1408">
                            <path
                               inkscape:connector-curvature="0"
                               id="path1410"
                               style="fill:none;stroke:#ffffff;stroke-width:0.27411658;stroke-linecap:butt;stroke-linejoin:miter;stroke-miterlimit:22.9260006;stroke-dasharray:none;stroke-opacity:1"
                               d="M 0,0 C 0.286,0 0.43,-0.143 0.43,-0.427 V -1.842 C 0.43,-2.125 0.286,-2.266 0,-2.266 h -1.121 v 0.703 h 0.959 v 0.859 H -1.085 L -2.419,-2.113 C -2.517,-2.216 -2.642,-2.266 -2.795,-2.266 H -3.84 c -0.289,0 -0.433,0.141 -0.433,0.424 v 1.415 c 0,0.284 0.142,0.427 0.426,0.427 h 1.052 v -0.704 h -0.886 v -0.859 h 0.85 l 1.328,1.409 C -1.406,-0.051 -1.279,0 -1.121,0 Z" />
                          </g>
                        </g>
                      </g>
                    </g>
                  </g>
                </g>
              </g>
            </g>
          </g>
        </g>
      </g>
    </g>
    <g
       style="stroke-width:1.00778151"
       transform="matrix(0.35038247,0,0,-0.34972549,2.4431386,266.43134)"
       id="g1412">
      <path
         inkscape:connector-curvature="0"
         id="path1414"
         style="fill:#231f20;fill-opacity:1;fill-rule:nonzero;stroke:none;stroke-width:1.00778151"
         d="M 0,0 C 0.286,0 0.43,-0.144 0.43,-0.43 V -1.908 C 0.43,-2.187 0.286,-2.326 0,-2.326 h -3.84 c -0.289,0 -0.433,0.142 -0.433,0.426 v 1.47 c 0,0.286 0.144,0.43 0.433,0.43 h 1.003 v -0.706 h -0.832 v -0.917 h 3.495 v 0.917 H -1.49 V -1.229 H -2.088 V 0 Z M 0.43,2.968 V 2.235 L -1.755,1.46 c 0,0 -0.142,0 -0.424,0 v 0.691 h -1.49 V 1.265 H 0.43 V 0.561 h -4.703 v 1.867 c 0,0.282 0.144,0.423 0.433,0.423 h 1.709 c 0.199,0 0.327,-0.067 0.385,-0.201 0.03,-0.072 0.045,-0.224 0.045,-0.457 z m 0,2.814 V 5.085 L -0.463,4.943 V 4.063 L 0.43,3.921 V 3.227 H 0.418 L -4.279,4.138 V 4.877 Z M -1.067,4.844 -3.188,4.502 -1.067,4.156 Z M -5.271,5.446 -4.477,4.571 V 4.066 h -0.025 l -0.796,0.517 v 0.863 z m 1.619,2.649 V 6.878 h 1.392 v 1.041 h 0.611 V 6.878 H 0.43 V 6.175 h -4.703 v 1.92 z M -4.273,9.211 H 0.43 V 8.50745 h -4.703 z m 4.703,0 z M 0,12.101 c 0.286,0 0.43,-0.142 0.43,-0.43 V 10.206 C 0.43,9.927 0.286,9.787 0,9.787 h -3.84 c -0.289,0 -0.433,0.14 -0.433,0.419 v 1.465 c 0,0.288 0.144,0.43 0.433,0.43 h 1.099 v -0.699 h -0.928 v -0.911 h 3.495 v 0.911 h -0.989 v 0.699 z m 0.43,2.937 V 14.34 l -0.893,-0.141 v -0.88 L 0.43,13.177 V 12.483 H 0.418 l -4.697,0.911 v 0.739 z M -1.067,14.1 -3.188,13.758 -1.067,13.412 Z M 0,17.685 c 0.286,0 0.43,-0.142 0.43,-0.427 V 15.843 C 0.43,15.56 0.286,15.419 0,15.419 h -1.121 v 0.703 h 0.959 v 0.86 h -0.923 l -1.334,-1.41 C -2.517,15.47 -2.642,15.419 -2.795,15.419 H -3.84 c -0.289,0 -0.433,0.141 -0.433,0.424 v 1.415 c 0,0.285 0.142,0.427 0.426,0.427 h 1.052 v -0.703 h -0.886 v -0.86 h 0.85 l 1.328,1.409 c 0.097,0.103 0.224,0.154 0.382,0.154 H 0" />
    </g>
    <g
       style="stroke-width:1.00778151"
       transform="matrix(0.35038247,0,0,-0.34972549,2.4431386,275.75398)"
       id="g1416">
      <path
         inkscape:connector-curvature="0"
         id="path1418"
         style="fill:none;stroke:#ffffff;stroke-width:0.50389075;stroke-linecap:butt;stroke-linejoin:miter;stroke-miterlimit:22.9260006;stroke-dasharray:none;stroke-opacity:1"
         d="M 0,0 C 0.286,0 0.43,-0.143 0.43,-0.427 V -1.842 C 0.43,-2.125 0.286,-2.266 0,-2.266 h -1.121 v 0.703 h 0.959 v 0.859 H -1.085 L -2.419,-2.113 C -2.517,-2.216 -2.642,-2.266 -2.795,-2.266 H -3.84 c -0.289,0 -0.433,0.141 -0.433,0.424 v 1.415 c 0,0.284 0.142,0.427 0.426,0.427 h 1.052 v -0.704 h -0.886 v -0.859 h 0.85 l 1.328,1.409 C -1.406,-0.051 -1.279,0 -1.121,0 Z" />
      <g
         style="stroke-width:1.00778151"
         transform="translate(0,2.929)"
         id="g1420">
        <path
           inkscape:connector-curvature="0"
           id="path1422"
           style="fill:none;stroke:#ffffff;stroke-width:0.50389075;stroke-linecap:butt;stroke-linejoin:miter;stroke-miterlimit:22.9260006;stroke-dasharray:none;stroke-opacity:1"
           d="M 0,0 C 0.286,0 0.43,-0.143 0.43,-0.427 V -1.953 C 0.43,-2.232 0.286,-2.371 0,-2.371 h -3.84 c -0.289,0 -0.433,0.139 -0.433,0.418 v 1.526 C -4.273,-0.143 -4.129,0 -3.84,0 Z" />
        <g
           style="stroke-width:1.00778151"
           transform="translate(-0.174,-0.704)"
           id="g1424">
          <path
             inkscape:connector-curvature="0"
             id="path1426"
             style="fill:none;stroke:#ffffff;stroke-width:0.50389075;stroke-linecap:butt;stroke-linejoin:miter;stroke-miterlimit:22.9260006;stroke-dasharray:none;stroke-opacity:1"
             d="M 0,0 H -3.4948 V -0.96434 H 0 Z" />
          <g
             style="stroke-width:1.00778151"
             transform="translate(0.604,3.116)"
             id="g1428">
            <path
               inkscape:connector-curvature="0"
               id="path1430"
               style="fill:none;stroke:#ffffff;stroke-width:0.50389075;stroke-linecap:butt;stroke-linejoin:miter;stroke-miterlimit:22.9260006;stroke-dasharray:none;stroke-opacity:1"
               d="m 0,0 v -1.848 h -4.703 v 0.703 h 4.075 V 0 Z" />
            <g
               style="stroke-width:1.00778151"
               transform="translate(-0.43,2.77)"
               id="g1432">
              <path
                 inkscape:connector-curvature="0"
                 id="path1434"
                 style="fill:none;stroke:#ffffff;stroke-width:0.50389075;stroke-linecap:butt;stroke-linejoin:miter;stroke-miterlimit:22.9260006;stroke-dasharray:none;stroke-opacity:1"
                 d="M 0,0 C 0.286,0 0.43,-0.144 0.43,-0.433 V -1.926 C 0.43,-2.21 0.286,-2.353 0,-2.353 h -4.273 v 0.704 h 4.099 v 0.946 H -4.273 V 0 Z" />
              <g
                 style="stroke-width:1.00778151"
                 transform="translate(0,2.879)"
                 id="g1436">
                <path
                   inkscape:connector-curvature="0"
                   id="path1438"
                   style="fill:none;stroke:#ffffff;stroke-width:0.50389075;stroke-linecap:butt;stroke-linejoin:miter;stroke-miterlimit:22.9260006;stroke-dasharray:none;stroke-opacity:1"
                   d="M 0,0 C 0.286,0 0.43,-0.143 0.43,-0.43 V -1.896 C 0.43,-2.174 0.286,-2.314 0,-2.314 h -3.84 c -0.289,0 -0.433,0.14 -0.433,0.418 v 1.466 c 0,0.287 0.144,0.43 0.433,0.43 h 1.099 V -0.699 H -3.669 V -1.61 h 3.495 v 0.911 H -1.163 V 0 Z" />
                <g
                   style="stroke-width:1.00778151"
                   transform="translate(0.43,1.269)"
                   id="g1440">
                  <path
                     inkscape:connector-curvature="0"
                     id="path1442"
                     style="fill:none;stroke:#ffffff;stroke-width:0.50389075;stroke-linecap:butt;stroke-linejoin:miter;stroke-miterlimit:22.9260006;stroke-dasharray:none;stroke-opacity:1"
                     d="M -4.703,0 H 0 v -0.70357 h -4.703 z" />
                  <g
                     style="stroke-width:1.00778151"
                     id="g1444">
                    <path
                       inkscape:connector-curvature="0"
                       id="path1446"
                       style="fill:none;stroke:#ffffff;stroke-width:0.50389075;stroke-linecap:butt;stroke-linejoin:miter;stroke-miterlimit:22.9260006;stroke-dasharray:none;stroke-opacity:1"
                       d="M 0,0 Z" />
                    <g
                       style="stroke-width:1.00778151"
                       transform="translate(-0.43,2.948)"
                       id="g1448">
                      <path
                         inkscape:connector-curvature="0"
                         id="path1450"
                         style="fill:none;stroke:#ffffff;stroke-width:0.50389075;stroke-linecap:butt;stroke-linejoin:miter;stroke-miterlimit:22.9260006;stroke-dasharray:none;stroke-opacity:1"
                         d="M 0,0 C 0.286,0 0.43,-0.143 0.43,-0.427 V -1.953 C 0.43,-2.232 0.286,-2.371 0,-2.371 h -3.84 c -0.289,0 -0.433,0.139 -0.433,0.418 v 1.526 C -4.273,-0.143 -4.129,0 -3.84,0 Z" />
                      <g
                         style="stroke-width:1.00778151"
                         transform="translate(-0.174,-0.704)"
                         id="g1452">
                        <path
                           inkscape:connector-curvature="0"
                           id="path1454"
                           style="fill:none;stroke:#ffffff;stroke-width:0.50389075;stroke-linecap:butt;stroke-linejoin:miter;stroke-miterlimit:22.9260006;stroke-dasharray:none;stroke-opacity:1"
                           d="M 0,0 H -3.4948 V -0.96436 H 0 Z" />
                        <g
                           style="stroke-width:1.00778151"
                           transform="translate(0.604,3.651)"
                           id="g1456">
                          <path
                             inkscape:connector-curvature="0"
                             id="path1458"
                             style="fill:none;stroke:#ffffff;stroke-width:0.50389075;stroke-linecap:butt;stroke-linejoin:miter;stroke-miterlimit:22.9260006;stroke-dasharray:none;stroke-opacity:1"
                             d="m 0,0 v -0.616 l -2.96,-1.128 c 0.144,0.031 0.257,0.045 0.339,0.045 H 0 v -0.685 h -4.703 v 0.617 l 2.9,1.127 c -0.144,-0.031 -0.258,-0.045 -0.34,-0.045 h -2.56 V 0 Z" />
                          <g
                             style="stroke-width:1.00778151"
                             transform="translate(0,2.515)"
                             id="g1460">
                            <path
                               inkscape:connector-curvature="0"
                               id="path1462"
                               style="fill:none;stroke:#ffffff;stroke-width:0.50389075;stroke-linecap:butt;stroke-linejoin:miter;stroke-miterlimit:22.9260006;stroke-dasharray:none;stroke-opacity:1"
                               d="m 0,0 v -1.951 h -4.703 v 1.933 h 0.622 v -1.229 h 1.373 v 1.057 h 0.61 v -1.057 h 1.476 V 0 Z" />
                            <g
                               style="stroke-width:1.00778151"
                               transform="translate(-0.43,2.735)"
                               id="g1464">
                              <path
                                 inkscape:connector-curvature="0"
                                 id="path1466"
                                 style="fill:none;stroke:#ffffff;stroke-width:0.50389075;stroke-linecap:butt;stroke-linejoin:miter;stroke-miterlimit:22.9260006;stroke-dasharray:none;stroke-opacity:1"
                                 d="M 0,0 C 0.286,0 0.43,-0.143 0.43,-0.427 V -1.842 C 0.43,-2.125 0.286,-2.266 0,-2.266 h -1.121 v 0.703 h 0.959 v 0.859 H -1.085 L -2.419,-2.113 C -2.517,-2.216 -2.642,-2.266 -2.795,-2.266 H -3.84 c -0.289,0 -0.433,0.141 -0.433,0.424 v 1.415 c 0,0.284 0.142,0.427 0.426,0.427 h 1.052 v -0.704 h -0.886 v -0.859 h 0.85 l 1.328,1.409 C -1.406,-0.051 -1.279,0 -1.121,0 Z" />
                            </g>
                          </g>
                        </g>
                      </g>
                    </g>
                  </g>
                </g>
              </g>
            </g>
          </g>
        </g>
      </g>
    </g>
    <g
       style="stroke-width:1.00778151"
       transform="matrix(0.35038247,0,0,-0.34972549,2.4431386,275.75398)"
       id="g1468">
      <path
         inkscape:connector-curvature="0"
         id="path1470"
         style="fill:#808285;fill-opacity:1;fill-rule:nonzero;stroke:none;stroke-width:1.00778151"
         d="M 0,0 C 0.286,0 0.43,-0.143 0.43,-0.427 V -1.842 C 0.43,-2.125 0.286,-2.266 0,-2.266 h -1.121 v 0.703 h 0.959 v 0.859 H -1.085 L -2.419,-2.113 C -2.517,-2.216 -2.642,-2.266 -2.795,-2.266 H -3.84 c -0.289,0 -0.433,0.141 -0.433,0.424 v 1.415 c 0,0.284 0.142,0.427 0.426,0.427 h 1.052 v -0.704 h -0.886 v -0.859 h 0.85 l 1.328,1.409 C -1.406,-0.051 -1.279,0 -1.121,0 Z m 0,2.929 c 0.286,0 0.43,-0.142 0.43,-0.426 V 0.976 C 0.43,0.697 0.286,0.558 0,0.558 h -3.84 c -0.289,0 -0.433,0.139 -0.433,0.418 v 1.527 c 0,0.284 0.144,0.426 0.433,0.426 z M -0.174,2.226 H -3.6688 V 1.26166 H -0.174 Z M 0.43,5.342 V 3.493 h -4.703 v 0.704 h 4.075 V 5.342 Z M 0,8.112 c 0.286,0 0.43,-0.144 0.43,-0.433 V 6.186 C 0.43,5.902 0.286,5.759 0,5.759 h -4.273 v 0.704 h 4.099 V 7.41 h -4.099 v 0.702 z m 0,2.879 c 0.286,0 0.43,-0.142 0.43,-0.429 V 9.096 C 0.43,8.817 0.286,8.677 0,8.677 h -3.84 c -0.289,0 -0.433,0.14 -0.433,0.419 v 1.466 c 0,0.287 0.144,0.429 0.433,0.429 h 1.099 V 10.292 H -3.669 V 9.381 h 3.495 v 0.911 h -0.989 v 0.699 z M -4.273,12.26 H 0.43 v -0.70357 h -4.703 z m 4.703,0 z M 0,15.208 c 0.286,0 0.43,-0.142 0.43,-0.426 V 13.255 C 0.43,12.976 0.286,12.837 0,12.837 h -3.84 c -0.289,0 -0.433,0.139 -0.433,0.418 v 1.527 c 0,0.284 0.144,0.426 0.433,0.426 z M -0.174,14.505 H -3.6688 V 13.54064 H -0.174 Z M 0.43,18.156 V 17.54 l -2.96,-1.128 c 0.144,0.031 0.257,0.045 0.339,0.045 H 0.43 v -0.685 h -4.703 v 0.617 l 2.9,1.127 c -0.144,-0.031 -0.258,-0.045 -0.34,-0.045 h -2.56 v 0.685 z m 0,2.515 V 18.72 h -4.703 v 1.933 h 0.621 v -1.229 h 1.374 v 1.057 h 0.61 v -1.057 h 1.476 v 1.247 z M 0,23.406 c 0.286,0 0.43,-0.143 0.43,-0.427 V 21.564 C 0.43,21.281 0.286,21.14 0,21.14 h -1.121 v 0.703 h 0.959 v 0.859 H -1.085 L -2.419,21.293 C -2.517,21.19 -2.642,21.14 -2.795,21.14 H -3.84 c -0.289,0 -0.433,0.141 -0.433,0.424 v 1.415 c 0,0.284 0.142,0.427 0.426,0.427 h 1.052 v -0.704 h -0.886 v -0.859 h 0.85 l 1.328,1.409 c 0.097,0.103 0.224,0.154 0.382,0.154 H 0" />
    </g>
    <text
       y="2.5795608"
       x="-259.51266"
       id="text1478"
       style="font-variant:normal;font-weight:normal;font-size:1.75027037px;font-family:Arial;-inkscape-font-specification:ArialMT;writing-mode:lr-tb;fill:#231f20;fill-opacity:1;fill-rule:nonzero;stroke:none;stroke-width:0.35277796"
       transform="matrix(4.0040503e-5,-0.99906204,1.0009388,3.9965425e-5,0,0)">
      <tspan
         style="stroke-width:0.35277796"
         id="tspan1476"
         sodipodi:role="line"
         y="2.5795608"
         x="-259.51266 -258.44324 -257.27582 -256.30267 -255.81609 -255.32951 -254.84294 -253.8698 -252.89664 -251.92348 -251.43692 -250.46378 -249.49062 -248.51746 -248.0309 -247.05774 -246.08459 -245.11143 -244.13831 -243.65172 -243.06888 -242.58231 -241.41487 -240.05316 -238.69145 -237.32976 -236.39055">TEL.: 315 578 7976 - BOGOTA</tspan>
    </text>
    <text
       y="4.5615935"
       x="-270.51111"
       id="text1482"
       style="font-variant:normal;font-weight:normal;font-size:2.1002171px;font-family:Arial;-inkscape-font-specification:ArialMT;writing-mode:lr-tb;fill:#231f20;fill-opacity:1;fill-rule:nonzero;stroke:none;stroke-width:0.35277796"
       transform="matrix(3.3367086e-5,-0.99906204,1.0009388,3.3304521e-5,0,0)">
      <tspan
         style="stroke-width:0.35277796"
         id="tspan1480"
         sodipodi:role="line"
         y="4.5615935"
         x="-270.51111 -269.46097 -268.29327 -266.54379 -265.37607 -264.6767 -263.62659 -263.16034 -261.99261 -261.52637 -259.39465 -258.34451 -257.17682 -256.71057 -255.54285 -254.49274 -254.02649 -252.85876 -251.69104 -250.52333 -249.47321 -248.3055 -247.60611 -246.4384 -245.85454 -245.38829 -244.33818 -243.17046 -242.12036 -241.5365 -240.36877 -239.20105">comercial@solucionesgraficas.net</tspan>
    </text>
    <g
       style="fill:#000000;stroke-width:1.00778151"
       id="g1946-7-8"
       transform="matrix(0.51197663,0,0,0.5105872,-5.5289821,158.88548)">
      <text
         transform="rotate(-90)"
         style="font-variant:normal;font-weight:normal;font-size:2.73765993px;font-family:Arial;-inkscape-font-specification:ArialMT;writing-mode:lr-tb;fill:#000000;fill-opacity:1;fill-rule:nonzero;stroke:none;stroke-width:0.35552311"
         id="text1206-9-67-9"
         x="-270.71252"
         y="15.714718">
        <tspan
           x="-270.71252"
           sodipodi:role="line"
           id="tspan1204-6-3-7"
           style="fill:#000000;stroke-width:0.35552311"
           y="15.714718">DISEÑO Y DIGITALIZACIÓN</tspan>
      </text>
    </g>
  </g>
</svg>
