<?xml version="1.0" encoding="UTF-8" standalone="no"?>
<svg
   version="1.1"
   id="svg2"
   width="412"
   height="412"
   viewBox="0 0 412 412"
   sodipodi:docname="primax.svg"
   inkscape:version="1.1 (ce6663b3b7, 2021-05-25)"
   inkscape:export-filename="/media/luiscgraciap/DATOS (HDD)/SOLGRAF/Diseno/PRIMAX/primax.png"
   inkscape:export-xdpi="96"
   inkscape:export-ydpi="96"
   xmlns:inkscape="http://www.inkscape.org/namespaces/inkscape"
   xmlns:sodipodi="http://sodipodi.sourceforge.net/DTD/sodipodi-0.dtd"
   xmlns:xlink="http://www.w3.org/1999/xlink"
   xmlns="http://www.w3.org/2000/svg"
   xmlns:svg="http://www.w3.org/2000/svg"
   xmlns:rdf="http://www.w3.org/1999/02/22-rdf-syntax-ns#"
   xmlns:cc="http://creativecommons.org/ns#"
   xmlns:dc="http://purl.org/dc/elements/1.1/">
  <metadata
     id="metadata8">
    <rdf:RDF>
      <cc:Work
         rdf:about="">
        <dc:format>image/svg+xml</dc:format>
        <dc:type
           rdf:resource="http://purl.org/dc/dcmitype/StillImage" />
        <dc:title />
      </cc:Work>
    </rdf:RDF>
  </metadata>
  <defs
     id="defs6">
    <linearGradient
       id="id0"
       gradientUnits="userSpaceOnUse"
       x1="124.26"
       y1="2283.1699"
       x2="4875.7402"
       y2="2283.1699">
      <stop
         offset="0"
         style="stop-opacity:1; stop-color:#FFB011"
         id="stop4" />
      <stop
         offset="0.129412"
         style="stop-opacity:1; stop-color:#FF8F09"
         id="stop6" />
      <stop
         offset="1"
         style="stop-opacity:1; stop-color:#FF6D00"
         id="stop8" />
    </linearGradient>
    <linearGradient
       id="id1"
       gradientUnits="userSpaceOnUse"
       xlink:href="#id0"
       x1="2455.7"
       y1="4144.8101"
       x2="3603.3"
       y2="4144.8101" />
    <style
       id="style867"
       type="text/css"><![CDATA[
    .fil0 {fill:url(#id0)}
    .fil1 {fill:url(#id1)}
   ]]></style>
    <linearGradient
       inkscape:collect="always"
       xlink:href="#id0"
       id="linearGradient900"
       gradientUnits="userSpaceOnUse"
       x1="124.26"
       y1="2283.1699"
       x2="4875.7402"
       y2="2283.1699" />
  </defs>
  <sodipodi:namedview
     pagecolor="#ffffff"
     bordercolor="#666666"
     borderopacity="1"
     objecttolerance="10"
     gridtolerance="10"
     guidetolerance="10"
     inkscape:pageopacity="0"
     inkscape:pageshadow="2"
     inkscape:window-width="1680"
     inkscape:window-height="1024"
     id="namedview4"
     showgrid="false"
     inkscape:zoom="2.3475962"
     inkscape:cx="184.86996"
     inkscape:cy="255.58059"
     inkscape:window-x="0"
     inkscape:window-y="0"
     inkscape:window-maximized="1"
     inkscape:current-layer="svg2"
     inkscape:document-rotation="0"
     inkscape:pagecheckerboard="0" />
  <g
     style="clip-rule:evenodd;fill-rule:evenodd;image-rendering:optimizeQuality;shape-rendering:geometricPrecision;text-rendering:geometricPrecision"
     id="g898"
     transform="matrix(0.08671467,0,0,0.08671467,-10.774534,-10.758947)">
    <g
       id="Capa_x0020_1-9">
      <metadata
         id="CorelCorpID_0Corel-Layer-0" />
      <g
         id="_2253448548448">
        <path
           id="path880"
           d="m 734,2261 c -274.09774,248.9361 -454.51101,430.0252 -578,740 -34,112 -47,267 -7,386 75.80127,257.9598 322.28356,441.633 487,561 l 176,103 c 29,15 61,28 91,45 l 440,198 1124,-1404 c 3,-26 -131,-207 -159,-251 -153.3415,-212.3026 -301.1499,-422.0249 -471,-661 -50,-78 -81,-69 153,-69 h 585 c 103,2 195,54 253,134 196,270 140,269 245,160 602.8956,-595.7947 999.4293,-993.8272 1703,-1683 40,-40 137,-94 84,-196 -58,-112 -210,-25 -337,3 -250.4704,99.52711 -527.2291,185.36857 -753,280 -238.635,101.30592 -492.4147,208.90448 -716,307 -807.2854,378.3264 -1703.4651,840.7939 -2320,1347 z"
           class="fil0"
           inkscape:connector-curvature="0"
           style="fill:url(#linearGradient900)"
           sodipodi:nodetypes="ccccccccccsccccccccc" />
        <path
           id="path882"
           d="m 2456,4635 c 125,60 491,97 669,96 108,0 245,-18 347,-35 105,-18 174,-146 101,-239 l -426,-615 c -39,-55 -169,-266 -209,-284 -25,12 -26,28 -42,52 -104,169 -149,281 -226,461 l -61,133 c -21,45 -35,106 -55,140 -21,38 -97,247 -98,291 z"
           class="fil1"
           inkscape:connector-curvature="0"
           style="fill:url(#id1)" />
      </g>
    </g>
  </g>
</svg>
